<?xml version="1.0" encoding="UTF-8"?>
<svg id="Layer_1" xmlns="http://www.w3.org/2000/svg" xmlns:xlink="http://www.w3.org/1999/xlink" version="1.1" viewBox="0 0 2800 1000">
  <!-- Generator: Adobe Illustrator 30.1.0, SVG Export Plug-In . SVG Version: 2.1.1 Build 136)  -->
  <defs>
    <style>
      .st0 {
        fill: #8051a1;
      }

      .st1 {
        fill: url(#linear-gradient);
      }

      .st2 {
        fill: #fff;
      }

      .st3 {
        fill: #ebdbec;
      }
    </style>
    <linearGradient id="linear-gradient" x1="13.56" y1="250.09" x2="847.33" y2="743.21" gradientUnits="userSpaceOnUse">
      <stop offset="0" stop-color="#1f1230"/>
      <stop offset=".31" stop-color="#45266a"/>
      <stop offset=".66" stop-color="#7951a1"/>
      <stop offset="1" stop-color="#73479c"/>
    </linearGradient>
  </defs>
  <g>
    <path class="st1" d="M865.43,714.02v-428.05c0-20.95-11.17-40.3-29.31-50.77L465.42,21.18c-18.14-10.47-40.49-10.47-58.63,0L36.09,235.2c-18.14,10.47-29.31,29.83-29.31,50.77v428.05c0,20.95,11.17,40.3,29.31,50.77l370.7,214.02c18.14,10.47,40.49,10.47,58.63,0l370.7-214.02c18.14-10.47,29.31-29.83,29.31-50.77Z"/>
    <g>
      <path class="st3" d="M425.6,504.36l.91-346.47c.02-8.94-9.63-14.55-17.38-10.1L126.06,310.23c-7.75,4.45-7.78,15.62-.05,20.1l299.6,174.03Z"/>
      <path class="st3" d="M425.6,504.36l.84,319.62c.06,21.82,23.8,35.32,42.58,24.2l251.14-148.66c18.59-11.01,29.89-31.11,29.61-52.72l-3.59-276.24c-.31-23.92-26.32-38.6-46.96-26.51l-273.62,160.31Z"/>
    </g>
  </g>
  <g>
    <path class="st2" d="M1264.12,593.02v150.68h-107.06v-444.12h177.22c33.96,0,64,6.25,90.14,18.76,26.13,12.51,46.36,30.3,60.7,53.38,14.34,23.08,21.5,49.26,21.5,78.54,0,43.31-15.51,77.93-46.52,103.86-31.01,25.93-73.56,38.89-127.65,38.89h-68.33ZM1264.12,510.36h70.16c20.74,0,36.55-5.19,47.43-15.56,10.88-10.37,16.32-25.01,16.32-43.92,0-20.74-5.59-37.31-16.78-49.72-11.19-12.4-26.44-18.71-45.75-18.91h-71.38v128.11Z"/>
    <path class="st2" d="M1934.57,743.71h-106.46l-157.39-276.35v276.35h-107.06v-444.12h107.06l157.09,276.36v-276.36h106.76v444.12Z"/>
    <path class="st2" d="M2365.88,688.8c-16.47,18.3-40.57,33.05-72.29,44.23-31.72,11.18-66.5,16.78-104.32,16.78-58.16,0-104.62-17.79-139.4-53.38-34.77-35.58-53.38-85.1-55.82-148.55l-.31-38.43c0-43.72,7.73-81.9,23.18-114.54,15.45-32.64,37.57-57.75,66.34-75.34,28.77-17.59,62.07-26.38,99.9-26.38,55.31,0,98.27,12.66,128.87,37.98,30.6,25.32,48.45,63.09,53.53,113.32h-103.1c-3.66-24.81-11.59-42.5-23.79-53.08-12.2-10.57-29.49-15.86-51.85-15.86-26.84,0-47.58,11.39-62.23,34.16-14.64,22.78-22.07,55.31-22.27,97.61v26.84c0,44.33,7.57,77.63,22.72,99.9,15.15,22.27,38.99,33.4,71.53,33.4,27.86,0,48.6-6.2,62.23-18.61v-68.94h-74.43v-73.51h181.49v182.41Z"/>
    <path class="st0" d="M2593.74,447.22l72.6-147.63h122.32l-124.15,220.23,127.5,223.89h-123.54l-74.73-150.38-74.73,150.38h-123.23l127.2-223.89-123.84-220.23h122.01l72.6,147.63Z"/>
  </g>
</svg>