<?xml version="1.0" encoding="UTF-8"?>
<svg id="Layer_1" xmlns="http://www.w3.org/2000/svg" xmlns:xlink="http://www.w3.org/1999/xlink" version="1.1" viewBox="0 0 2800 1000">
  <!-- Generator: Adobe Illustrator 30.1.0, SVG Export Plug-In . SVG Version: 2.1.1 Build 136)  -->
  <defs>
    <style>
      .st0 {
        fill: #8051a1;
      }

      .st1 {
        fill: url(#linear-gradient);
      }

      .st2 {
        fill: #fff;
      }

      .st3 {
        fill: #ebdbec;
      }
    </style>
    <linearGradient id="linear-gradient" x1="25" y1="500" x2="956.57" y2="500" gradientUnits="userSpaceOnUse">
      <stop offset="0" stop-color="#1f1230"/>
      <stop offset=".31" stop-color="#45266a"/>
      <stop offset=".66" stop-color="#7951a1"/>
      <stop offset="1" stop-color="#73479c"/>
    </linearGradient>
  </defs>
  <g>
    <rect class="st1" x="25" y="34.22" width="931.57" height="931.57" rx="361.52" ry="361.52"/>
    <g>
      <path class="st3" d="M480.6,504.23l.88-335.32c.02-8.94-9.63-14.55-17.38-10.1l-273.4,156.89c-7.75,4.45-7.78,15.62-.05,20.1l289.95,168.42Z"/>
      <path class="st3" d="M480.6,504.23l.81,309.9c.06,21.16,23.08,34.24,41.28,23.47l243.5-144.14c18.03-10.67,28.98-30.17,28.71-51.12l-3.48-267.83c-.3-23.19-25.52-37.43-45.53-25.7l-265.29,155.43Z"/>
    </g>
  </g>
  <g>
    <path class="st2" d="M1293.61,590.19v146.1h-103.81v-430.61h171.83c32.93,0,62.06,6.06,87.39,18.19,25.33,12.13,44.95,29.38,58.85,51.76,13.9,22.38,20.85,47.76,20.85,76.15,0,42-15.04,75.56-45.1,100.7-30.07,25.14-71.33,37.71-123.77,37.71h-66.25ZM1293.61,510.04h68.02c20.11,0,35.44-5.03,45.99-15.08,10.55-10.06,15.82-24.25,15.82-42.59,0-20.11-5.42-36.18-16.27-48.21-10.85-12.02-25.63-18.14-44.36-18.34h-69.21v124.21Z"/>
    <path class="st2" d="M1943.66,736.29h-103.22l-152.61-267.95v267.95h-103.81v-430.61h103.81l152.31,267.95v-267.95h103.51v430.61Z"/>
    <path class="st2" d="M2361.84,683.06c-15.97,17.74-39.33,32.04-70.09,42.88-30.76,10.84-64.47,16.27-101.15,16.27-56.39,0-101.44-17.25-135.16-51.76-33.71-34.5-51.76-82.51-54.12-144.03l-.3-37.26c0-42.39,7.49-79.41,22.48-111.05,14.98-31.65,36.42-55.99,64.33-73.05,27.9-17.05,60.18-25.58,96.86-25.58,53.63,0,95.28,12.27,124.95,36.82,29.67,24.55,46.97,61.17,51.9,109.87h-99.96c-3.55-24.05-11.24-41.21-23.07-51.46-11.83-10.25-28.59-15.38-50.28-15.38-26.03,0-46.14,11.04-60.33,33.12-14.2,22.08-21.4,53.63-21.59,94.64v26.03c0,42.98,7.34,75.27,22.03,96.86,14.69,21.59,37.8,32.38,69.35,32.38,27.01,0,47.12-6.01,60.33-18.04v-66.84h-72.16v-71.27h175.97v176.86Z"/>
    <path class="st0" d="M2582.76,448.83l70.39-143.14h118.59l-120.37,213.53,123.62,217.08h-119.78l-72.46-145.8-72.46,145.8h-119.48l123.33-217.08-120.07-213.53h118.3l70.39,143.14Z"/>
  </g>
</svg>