<?xml version="1.0" encoding="UTF-8"?>
<svg id="Layer_1" xmlns="http://www.w3.org/2000/svg" version="1.1" viewBox="0 0 1000 1000">
  <!-- Generator: Adobe Illustrator 30.1.0, SVG Export Plug-In . SVG Version: 2.1.1 Build 136)  -->
  <defs>
    <style>
      .st0 {
        fill: #22172b;
      }

      .st1 {
        fill: #ebdbec;
      }
    </style>
  </defs>
  <path class="st0" d="M929.45,713.61v-428.05c0-20.95-11.17-40.3-29.31-50.77L529.43,20.77c-18.14-10.47-40.49-10.47-58.63,0L100.1,234.79c-18.14,10.47-29.31,29.83-29.31,50.77v428.05c0,20.95,11.17,40.3,29.31,50.77l370.7,214.02c18.14,10.47,40.49,10.47,58.63,0l370.7-214.02c18.14-10.47,29.31-29.83,29.31-50.77Z"/>
  <g>
    <path class="st1" d="M501.47,499.07l.76-287.91c.02-8.94-9.63-14.55-17.38-10.1l-232.28,133.29c-7.75,4.45-7.78,15.62-.05,20.1l248.96,144.61Z"/>
    <path class="st1" d="M501.47,499.07l.7,268.56c.05,18.33,20,29.67,35.78,20.34l211.02-124.91c15.62-9.25,25.11-26.14,24.88-44.3l-3.01-232.11c-.26-20.1-22.12-32.44-39.46-22.28l-229.9,134.7Z"/>
  </g>
</svg>